<?xml version="1.0" standalone="no"?><!DOCTYPE svg PUBLIC "-//W3C//DTD SVG 1.1//EN" "http://www.w3.org/Graphics/SVG/1.1/DTD/svg11.dtd" [<!ENTITY nbsp " ">]><svg data-noselect="" viewBox="79.53285338477002 27.8352374361626 731.5036831201799 548.6277623401348" width="731.5036831201799" ref="svg_canvas" height="548.6277623401348" preserveAspectRatio="none" version="1.1" xmlns="http://www.w3.org/2000/svg" style="background: #e6f0f6;"><g id="shape_e68ub65N9p" ref="shape_e68ub65N9p" key="shape_e68ub65N9p" transform="translate(159.53285338477002,222.0480503670761) rotate(0,80.10108227021,80.10108227021) scale(1,1)" style="cursor:move;display:inline;opacity:1;" filter="">
            <g style="display:inline"><rect fill="rgba(0,0,0,0)" width="180.20216454042" height="180.20213647830784" x="-10" y="-10"></rect><svg xmlns="http://www.w3.org/2000/svg" viewBox="0.01000136137008667 0 87.11001586914062 87.11000061035156" width="160.20216454042" height="160.20213647830784" preserveAspectRatio="none" data-parent="shape_e68ub65N9p"><defs><linearGradient id="afd4b6d27-28f0-4e43-a279-e8c45bb6e25e" x1="-451.48" y1="-506.57" x2="-451.48" y2="-558.35" gradientTransform="rotate(45 -867.319 352.665)" gradientUnits="userSpaceOnUse"><stop offset="0" stop-color="#fc0048"></stop><stop offset="1" stop-color="#f804de"></stop></linearGradient><linearGradient id="b45f323b4-49e5-42eb-b7f6-b7c555a5aca1" x1="-467.73" y1="-536.38" x2="-467.73" y2="-483.45" gradientTransform="rotate(45 -867.319 352.665)" gradientUnits="userSpaceOnUse"><stop offset="0" stop-color="#00f3ff"></stop><stop offset="1" stop-color="#00afd6"></stop></linearGradient><linearGradient id="c3da7f391-88bc-4498-b293-8ba965fd051c" x1="-1278.84" y1="-506.57" x2="-1278.84" y2="-558.35" gradientTransform="scale(-1 1) rotate(-45 11.798 -1705.648)" gradientUnits="userSpaceOnUse"><stop offset="0" stop-color="#c33764"></stop><stop offset="1" stop-color="#1d2671"></stop></linearGradient><linearGradient id="dbfee6754-ba6b-4c2d-b5b7-96cc6f4f0cbc" x1="-1295.09" y1="-536.38" x2="-1295.09" y2="-483.45" gradientTransform="scale(-1 1) rotate(-45 11.798 -1705.648)" gradientUnits="userSpaceOnUse"><stop offset="0" stop-color="#00f3ff"></stop><stop offset="1" stop-color="#00afd6"></stop></linearGradient></defs><g><g><path d="M85.48 0L48.15 37.33a15.39 15.39 0 0 1-11 4.53h-.76a15.39 15.39 0 0 1-7.78-2.62 16 16 0 0 1-2.22-1.85l-1.12-1.12L53.78 7.61A26 26 0 0 1 72.16 0h13.32z" fill="url(#afd4b6d27-28f0-4e43-a279-e8c45bb6e25e)"></path><path d="M55 6.36L21.86 39.52a15.49 15.49 0 0 1-19.55 1.92 16.21 16.21 0 0 1-1.75-1.37c-.19-.17-.37-.36-.55-.54L25.55 14A26 26 0 0 1 44 6.35h11z" fill="url(#b45f323b4-49e5-42eb-b7f6-b7c555a5aca1)"></path><path d="M87.12 1.64L49.8 39a15.37 15.37 0 0 0-4.53 11v.76a15.18 15.18 0 0 0 2.62 7.78 16.92 16.92 0 0 0 1.86 2.23L50.91 62l28.6-28.6A26 26 0 0 0 87.12 15V4.37v-.3z" fill="url(#c3da7f391-88bc-4498-b293-8ba965fd051c)"></path><path d="M80.76 32.1L47.6 65.26a15.52 15.52 0 0 0-1.92 19.55 16.31 16.31 0 0 0 1.38 1.75c.17.19.35.38.53.55l25.56-25.53a26.11 26.11 0 0 0 7.62-18.4v-5.44-.11z" fill="url(#dbfee6754-ba6b-4c2d-b5b7-96cc6f4f0cbc)"></path></g></g></svg></g>
        </g><g id="shape_x84Ishz7t9" ref="shape_x84Ishz7t9" key="shape_x84Ishz7t9" transform="translate(284.03657531738,179.29500579834) rotate(0,233.47828373187,114.46664781739) scale(1,1)" style="cursor:move;display:inline;opacity:1;" filter="">
            <g style="display:inline"><svg xmlns="http://www.w3.org/2000/svg" version="1.1" xmlns:xlink="http://www.w3.org/1999/xlink" width="382" height="202.4775390625" viewBox="0 0 382 202.4775390625" preserveAspectRatio="none" data-parent="shape_x84Ishz7t9"><rect fill="rgba(0,0,0,0)" width="256" height="63" x="63" y="69.73876953125"></rect><g data-width="256" transform="translate(63, 0)"><path d="M14.21-42.64L17.32-26.64L23.90-45.50Q24.30-46.60 24.86-47.07L24.86-47.07Q25.38-47.47 26.42-47.47L26.42-47.47L37.59-47.47Q38.39-47.47 38.79-47.03L38.79-47.03Q39.25-46.57 39.25-46.11L39.25-46.11Q39.25-45.90 39.07-45.28L39.07-45.28L22.89 4.18Q22.21 6.18 20.36 6.18L20.36 6.18L8.00 6.18Q7.23 6.18 6.83 5.75L6.83 5.75Q6.40 5.29 6.40 4.86L6.40 4.86Q6.40 4.55 6.58 4.03L6.58 4.03L16.70-24.95Q15.69-24.82 15.47-24.82L15.47-24.82L7.51-24.82Q5.60-24.82 5.20-26.95L5.20-26.95L2.37-42.48Q2.31-42.88 2.31-43.22L2.31-43.22Q2.31-43.68 2.68-44.14L2.68-44.14Q3.17-44.76 4.15-44.76L4.15-44.76L11.87-44.76Q13.78-44.76 14.21-42.64L14.21-42.64ZM37.84-27.84L37.84-27.84L45.22-42.91Q45.77-44.05 46.36-44.45L46.36-44.45Q46.88-44.82 48.02-44.82L48.02-44.82L57.34-44.82Q58.05-44.82 58.39-44.39L58.39-44.39Q58.75-43.99 58.75-43.62L58.75-43.62Q58.75-43.34 58.48-42.79L58.48-42.79L50.76-27.13Q50.30-26.18 50.30-25.56L50.30-25.56Q50.30-25.19 50.60-24.33L50.60-24.33L60.32 4.12Q60.51 4.68 60.51 4.98L60.51 4.98Q60.51 5.38 60.05 5.88L60.05 5.88Q59.65 6.31 58.88 6.31L58.88 6.31L49.13 6.31Q48.05 6.31 47.53 5.88L47.53 5.88Q46.97 5.44 46.60 4.31L46.60 4.31L37.53-23.07Q37.01-24.61 37.01-25.22L37.01-25.22Q37.01-26.12 37.84-27.84Z" transform="translate(0 124.73876953125) " fill="rgb(25, 25, 25)" stroke="rgb(25, 25, 25)" stroke-linecap="square" stroke-linejoin="square" stroke-width="0.105" data-glyph-w="64" data-glyph-h="75.6123046875" data-glyph-ascender="61.73876953125" data-glyph-descender="-13.87353515625"></path><path d="M26.79-14.30L27.47-15.41L26.52-15.41Q25.75-15.41 25.19-16.00L25.19-16.00Q24.64-16.58 24.64-17.41L24.64-17.41L24.64-18.00Q24.64-18.83 25.19-19.41L25.19-19.41Q25.75-20.00 26.46-20.00L26.46-20.00L27.99-20.00Q29.59-20.00 29.59-21.23L29.59-21.23Q29.59-22.46 27.99-22.46L27.99-22.46L27.13-22.46Q26.61-22.46 26.06-23.01L26.06-23.01Q25.53-23.53 25.53-24.39L25.53-24.39L25.53-25.07Q25.53-25.93 26.06-26.49L26.06-26.49Q26.61-27.01 27.13-27.01L27.13-27.01L28.18-27.01Q29.59-27.01 29.59-28.27L29.59-28.27Q29.59-29.50 27.99-29.50L27.99-29.50L27.59-29.50Q27.25-29.50 26.85-29.93L26.85-29.93Q26.46-30.30 26.46-31.16L26.46-31.16L26.46-43.84Q26.46-46.17 28.64-46.17L28.64-46.17L58.51-46.17Q60.69-46.17 60.69-43.84L60.69-43.84L60.69-31.07Q60.69-30.42 60.37-29.96Q60.05-29.50 59.62-29.50L59.62-29.50L59.06-29.50Q57.65-29.50 57.65-28.27L57.65-28.27Q57.65-27.01 59.31-27.01L59.31-27.01L59.86-27.01Q60.29-27.01 60.75-26.55L60.75-26.55Q61.22-26.09 61.22-25.26L61.22-25.26L61.22-24.21Q61.22-23.50 60.82-22.98Q60.42-22.46 59.86-22.46L59.86-22.46L59.06-22.46Q57.65-22.46 57.65-21.19L57.65-21.19Q57.65-20.00 59.28-20.00L59.28-20.00L60.11-20.00Q60.63-20.00 61.15-19.44L61.15-19.44Q61.68-18.92 61.68-18.06L61.68-18.06L61.68-17.04Q61.68-16.12 61.06-15.63L61.06-15.63Q60.85-15.44 59.95-15.38L59.95-15.38L60.42-14.40Q60.69-13.84 60.69-13.57L60.69-13.57Q60.69-13.23 60.32-12.80L60.32-12.80Q59.99-12.37 59.28-12.37L59.28-12.37L53.74-12.37Q51.86-12.37 51.16-13.78L51.16-13.78L51.03-14.03Q50.33-15.41 48.20-15.41L48.20-15.41L39.04-15.41Q37.01-15.41 36.24-14.15L36.24-14.15L35.99-13.75Q35.16-12.37 33.25-12.37L33.25-12.37L27.75-12.37Q27.10-12.37 26.79-12.80L26.79-12.80Q26.49-13.17 26.49-13.47L26.49-13.47Q26.49-13.75 26.79-14.30L26.79-14.30ZM38.64-39.68L38.64-39.68L48.51-39.68Q50.05-39.68 50.05-40.85L50.05-40.85Q50.05-42.02 48.51-42.02L48.51-42.02L38.64-42.02Q37.10-42.02 37.10-40.85L37.10-40.85Q37.10-39.68 38.64-39.68ZM38.88-33.65L38.88-33.65L48.27-33.65Q50.05-33.65 50.05-35.01L50.05-35.01Q50.05-36.36 48.27-36.36L48.27-36.36L38.88-36.36Q37.10-36.36 37.10-35.01L37.10-35.01Q37.10-33.65 38.88-33.65ZM41.47-27.01L41.47-27.01L45.80-27.01Q47.43-27.01 47.43-28.27L47.43-28.27Q47.43-29.50 45.80-29.50L45.80-29.50L41.47-29.50Q39.81-29.50 39.81-28.27L39.81-28.27Q39.81-27.01 41.47-27.01ZM45.83-22.46L45.83-22.46L41.44-22.46Q39.81-22.46 39.81-21.23L39.81-21.23Q39.81-20.00 41.44-20.00L41.44-20.00L45.83-20.00Q47.43-20.00 47.43-21.23L47.43-21.23Q47.43-22.46 45.83-22.46ZM40.02-11.47L40.02-11.47L47.16-11.47Q49.34-11.47 49.34-9.14L49.34-9.14L49.34 3.88Q49.34 6.21 47.16 6.21L47.16 6.21L40.02 6.21Q37.84 6.21 37.84 3.88L37.84 3.88L37.84-9.14Q37.84-11.47 40.02-11.47ZM27.72-6.31L27.72-6.31L26.79-8.77Q26.61-9.29 26.61-9.54L26.61-9.54Q26.61-10.06 27.09-10.44Q27.56-10.83 28.21-10.83L28.21-10.83L32.33-10.83Q34.18-10.83 34.85-8.89L34.85-8.89L35.38-7.44Q35.90-5.91 35.90-4.55L35.90-4.55Q35.90-3.81 35.53-1.88L35.53-1.88L34.33 4.18Q33.93 6.31 31.99 6.31L31.99 6.31L27.87 6.31Q26.89 6.31 26.39 5.66L26.39 5.66Q26.06 5.26 26.06 4.80L26.06 4.80Q26.06 4.52 26.15 4.06L26.15 4.06L27.87-3.97Q28.02-4.68 28.02-4.95L28.02-4.95Q28.02-5.44 27.72-6.31ZM4.12-28.21L4.12-28.21L3.57-28.21Q1.72-28.21 1.72-30.52L1.72-30.52L1.72-43.87Q1.72-46.17 3.57-46.17L3.57-46.17L4.12-46.17Q5.97-46.17 5.97-43.87L5.97-43.87L5.97-30.52Q5.97-28.21 4.12-28.21ZM59.34-4.00L59.34-4.00L60.85 4.03Q60.94 4.46 60.94 4.77L60.94 4.77Q60.94 5.26 60.60 5.69L60.60 5.69Q60.08 6.31 59.09 6.31L59.09 6.31L54.97 6.31Q53.03 6.31 52.66 4.15L52.66 4.15L51.65-1.81Q51.31-3.78 51.31-4.40L51.31-4.40Q51.31-5.78 51.90-7.51L51.90-7.51L52.39-8.89Q53.06-10.83 54.91-10.83L54.91-10.83L59.03-10.83Q59.83-10.83 60.20-10.40L60.20-10.40Q60.63-9.94 60.63-9.51L60.63-9.51Q60.63-9.26 60.45-8.77L60.45-8.77L59.52-6.28Q59.22-5.44 59.22-4.92L59.22-4.92Q59.22-4.68 59.34-4.00ZM22.64-28.21L22.64-28.21L22.24-28.21Q21.53-28.21 20.98-28.76L20.98-28.76Q20.43-29.35 20.43-30.52L20.43-30.52L20.43-43.87Q20.43-45.04 20.98-45.62L20.98-45.62Q21.53-46.17 22.24-46.17L22.24-46.17L22.64-46.17Q24.46-46.17 24.46-43.87L24.46-43.87L24.46-30.52Q24.46-28.21 22.64-28.21ZM15.93 4.12L13.10-16.95L10.03 3.94Q9.69 6.09 7.72 6.09L7.72 6.09L3.54 6.09Q2.55 6.09 2.03 5.48L2.03 5.48Q1.66 5.01 1.69 4.55L1.69 4.55Q1.72 4.25 1.78 3.85L1.78 3.85L8.37-30.58Q8.49-31.25 8.49-32.02L8.49-32.02L8.49-45.13Q8.49-47.47 10.67-47.47L10.67-47.47L16.12-47.47Q18.30-47.47 18.30-45.13L18.30-45.13L18.30-32.02Q18.30-31.25 18.43-30.61L18.43-30.61L24.27 4.03Q24.33 4.43 24.33 4.74L24.33 4.74Q24.33 5.23 23.96 5.69L23.96 5.69Q23.47 6.31 22.46 6.31L22.46 6.31L18.21 6.31Q16.24 6.31 15.93 4.12L15.93 4.12Z" transform="translate(64 124.73876953125) " fill="rgb(25, 25, 25)" stroke="rgb(25, 25, 25)" stroke-linecap="square" stroke-linejoin="square" stroke-width="0.105" data-glyph-w="64" data-glyph-h="75.6123046875" data-glyph-ascender="61.73876953125" data-glyph-descender="-13.87353515625"></path><path d="M15.04 4.12L15.07-5.26L13.72-5.29L11.04 4.31Q10.46 6.31 8.52 6.31L8.52 6.31L3.97 6.31Q3.29 6.31 2.81 5.92Q2.34 5.54 2.34 4.98L2.34 4.98Q2.34 4.68 2.52 4.12L2.52 4.12L5.26-3.94Q5.38-4.25 5.38-4.49L5.38-4.49Q5.41-5.29 4.40-5.41L4.40-5.41Q3.69-5.51 3.69-6.34L3.69-6.34L3.69-16.49Q3.69-18.83 5.88-18.83L5.88-18.83L34.91-18.83Q37.10-18.83 37.10-16.49L37.10-16.49L37.10-6.34Q37.10-5.51 36.42-5.41L36.42-5.41Q35.47-5.29 35.47-4.52L35.47-4.52Q35.47-4.18 35.56-3.97L35.56-3.97L38.30 4.12Q38.48 4.68 38.48 4.98L38.48 4.98Q38.48 5.38 38.02 5.88L38.02 5.88Q37.62 6.31 36.85 6.31L36.85 6.31L32.73 6.31Q30.88 6.31 30.24 4.31L30.24 4.31L27.32-5.11Q27.22-5.41 26.61-5.41L26.61-5.41Q26.12-5.41 26.12-4.98L26.12-4.98L26.12 4.12Q26.12 6.43 23.93 6.43L23.93 6.43L17.23 6.43Q15.04 6.43 15.04 4.12L15.04 4.12ZM17.38-9.57L17.38-9.57L23.44-9.57Q26.46-9.57 26.46-12.00L26.46-12.00L26.46-12.24Q26.46-14.67 23.44-14.67L23.44-14.67L17.38-14.67Q14.33-14.67 14.33-12.24L14.33-12.24L14.33-12.00Q14.33-9.57 17.38-9.57ZM59.28-2.89L59.28-2.89L41.77 5.04Q41.13 5.32 41.04 5.32L41.04 5.32Q40.79 5.32 40.36 4.92L40.36 4.92Q39.96 4.55 39.96 3.66L39.96 3.66L39.96-1.75Q39.96-2.95 40.33-3.54L40.33-3.54Q40.73-4.18 41.84-4.68L41.84-4.68L59.37-12.95Q59.99-13.23 60.11-13.23L60.11-13.23Q60.35-13.23 60.79-12.83L60.79-12.83Q61.15-12.46 61.15-11.63L61.15-11.63L61.15-5.75Q61.15-4.58 60.79-4.00L60.79-4.00Q60.42-3.38 59.28-2.89ZM13.01-28.15L13.01-28.15L5.88-28.15Q3.69-28.15 3.69-30.48L3.69-30.48L3.69-43.77Q3.69-46.11 5.88-46.11L5.88-46.11L35.07-46.11Q37.25-46.11 37.25-43.77L37.25-43.77L37.25-30.48Q37.25-28.15 35.07-28.15L35.07-28.15L28.12-28.15Q26.52-28.15 26.52-26.95L26.52-26.95Q26.52-25.75 28.12-25.75L28.12-25.75L36.42-25.75Q38.61-25.75 38.61-23.75L38.61-23.75L38.61-23.16Q38.61-21.16 36.42-21.16L36.42-21.16L3.91-21.16Q1.75-21.16 1.75-23.16L1.75-23.16L1.75-23.75Q1.75-25.75 3.91-25.75L3.91-25.75L13.01-25.75Q14.61-25.75 14.61-26.95L14.61-26.95Q14.61-28.15 13.01-28.15ZM15.78-39.13L15.78-39.13L25.16-39.13Q27.04-39.13 27.04-40.54L27.04-40.54Q27.04-41.96 25.16-41.96L25.16-41.96L15.78-41.96Q13.90-41.96 13.90-40.54L13.90-40.54Q13.90-39.13 15.78-39.13ZM15.93-32.30L15.93-32.30L25.01-32.30Q27.04-32.30 27.04-33.87L27.04-33.87Q27.04-35.41 25.01-35.41L25.01-35.41L15.93-35.41Q13.90-35.41 13.90-33.84L13.90-33.84Q13.90-32.30 15.93-32.30ZM61.15-46.14L61.15-46.14L61.15-41.19Q61.15-39.96 60.79-39.38Q60.42-38.79 59.31-38.30L59.31-38.30L42.60-30.70Q42.02-30.42 41.87-30.42L41.87-30.42Q41.62-30.42 41.22-30.82L41.22-30.82Q40.82-31.19 40.82-32.05L40.82-32.05L40.82-36.76Q40.82-37.93 41.19-38.51L41.19-38.51Q41.56-39.16 42.70-39.68L42.70-39.68L59.37-47.47Q60.02-47.77 60.11-47.77L60.11-47.77Q60.35-47.77 60.79-47.37L60.79-47.37Q61.15-47.00 61.15-46.14ZM61.15-29.35L61.15-29.35L61.15-24.18Q61.15-23.01 60.79-22.39L60.79-22.39Q60.42-21.78 59.31-21.29L59.31-21.29L42.70-13.87Q42.08-13.60 41.96-13.60L41.96-13.60Q41.71-13.60 41.28-14.00L41.28-14.00Q40.88-14.40 40.88-15.26L40.88-15.26L40.88-20.18Q40.88-21.35 41.28-21.93L41.28-21.93Q41.65-22.55 42.76-23.07L42.76-23.07L59.37-30.70Q59.99-30.98 60.11-30.98L60.11-30.98Q60.35-30.98 60.75-30.58L60.75-30.58Q61.15-30.18 61.15-29.35Z" transform="translate(128 124.73876953125) " fill="rgb(25, 25, 25)" stroke="rgb(25, 25, 25)" stroke-linecap="square" stroke-linejoin="square" stroke-width="0.105" data-glyph-w="64" data-glyph-h="75.6123046875" data-glyph-ascender="61.73876953125" data-glyph-descender="-13.87353515625"></path><path d="M21.84-30.15L21.84-30.15L23.93-28.79Q24.82-28.21 25.19-27.53L25.19-27.53Q25.53-26.89 25.53-25.62L25.53-25.62L25.53-22.30Q25.53-21.53 25.13-21.19L25.13-21.19Q24.79-20.92 24.61-20.92L24.61-20.92Q24.49-20.92 24.09-21.19L24.09-21.19L23.87-21.32Q23.26-21.72 22.58-21.72L22.58-21.72Q20.92-21.72 20.92-19.90L20.92-19.90L20.92 3.91Q20.92 6.24 18.73 6.24L18.73 6.24L10.34 6.24Q8.15 6.24 8.15 3.91L8.15 3.91L8.15-16.18Q8.15-18.03 6.46-18.03L6.46-18.03Q5.66-18.03 5.01-17.41L5.01-17.41L3.01-15.53Q2.55-15.10 2.40-15.10L2.40-15.10Q2.31-15.10 2.09-15.29L2.09-15.29Q1.75-15.60 1.75-16.18L1.75-16.18L1.75-21.41Q1.75-23.01 2.06-23.72L2.06-23.72Q2.37-24.46 3.60-25.59L3.60-25.59L12.55-33.96Q13.29-34.64 13.29-35.31L13.29-35.31Q13.29-36.82 11.23-36.82L11.23-36.82L3.94-36.82Q1.78-36.82 1.78-38.98L1.78-38.98L1.78-40.08Q1.78-42.24 3.88-42.24L3.88-42.24L5.04-42.24Q7.78-42.24 7.78-44.54L7.78-44.54Q7.78-44.88 7.69-45.22L7.69-45.22L7.63-45.44Q7.57-45.74 7.57-45.96L7.57-45.96Q7.63-47.40 9.29-47.40L9.29-47.40L16.70-47.40Q18.58-47.40 19.07-45.56L19.07-45.56L19.41-44.30Q19.93-42.24 22.39-42.24L22.39-42.24L23.78-42.24Q25.72-42.24 25.72-40.14L25.72-40.14L25.72-38.91Q25.72-36.98 24.15-35.50L24.15-35.50L21.75-33.22Q20.92-32.42 20.92-31.59L20.92-31.59Q20.92-30.73 21.84-30.15ZM41.77-21.01L41.77-21.01L44.94-21.01Q45.71-21.01 46.11-20.58L46.11-20.58Q46.57-20.09 46.57-19.66L46.57-19.66Q46.57-19.38 46.39-18.83L46.39-18.83L38.76 4.31Q38.39 5.44 37.84 5.88L37.84 5.88Q37.28 6.31 36.24 6.31L36.24 6.31L28.61 6.31Q27.84 6.31 27.47 5.88L27.47 5.88Q27.04 5.38 27.04 5.01L27.04 5.01Q27.04 4.71 27.22 4.15L27.22 4.15L31.87-8.31Q32.15-9.04 32.15-9.60L32.15-9.60Q32.15-10.52 31.35-11.10L31.35-11.10Q30.79-11.54 29.87-11.54L29.87-11.54L29.56-11.54Q27.69-11.54 27.69-13.87L27.69-13.87L27.69-43.84Q27.69-46.17 29.87-46.17L29.87-46.17L58.08-46.17Q60.26-46.17 60.26-43.84L60.26-43.84L60.26-13.87Q60.26-11.54 58.08-11.54L58.08-11.54L51.37-11.54Q49.19-11.54 49.19-13.87L49.19-13.87L49.19-37.90Q49.19-39.44 48.48-40.08L48.48-40.08Q47.80-40.76 46.14-40.76L46.14-40.76L41.77-40.76Q40.14-40.76 39.44-40.08L39.44-40.08Q38.76-39.44 38.76-37.90L38.76-37.90L38.76-23.84Q38.76-22.30 39.44-21.66L39.44-21.66Q40.14-21.01 41.77-21.01ZM47.68-9.29L47.68-9.29L53.53-9.29Q55.71-9.29 55.71-6.95L55.71-6.95L55.71-1.54Q55.71 1.29 58.48 1.29L58.48 1.29L59.37 1.29Q60.20 1.29 60.72 1.88L60.72 1.88Q61.28 2.46 61.28 3.38L61.28 3.38L61.28 4.21Q61.28 6.31 59.12 6.31L59.12 6.31L47.68 6.31Q45.50 6.31 45.50 3.97L45.50 3.97L45.50-6.95Q45.50-9.29 47.68-9.29Z" transform="translate(192 124.73876953125) " fill="rgb(25, 25, 25)" stroke="rgb(25, 25, 25)" stroke-linecap="square" stroke-linejoin="square" stroke-width="0.105" data-glyph-w="64" data-glyph-h="75.6123046875" data-glyph-ascender="61.73876953125" data-glyph-descender="-13.87353515625"></path></g></svg></g>
        </g><g id="shape_AAsIR3xCPo" ref="shape_AAsIR3xCPo" key="shape_AAsIR3xCPo" transform="translate(306.74653650495,291.26363557309503) rotate(0,182.68151502553,69.788492923316) scale(1,1)" style="cursor:move;display:inline;opacity:1;" filter="">
            <g style="display:inline"><svg xmlns="http://www.w3.org/2000/svg" version="1.1" xmlns:xlink="http://www.w3.org/1999/xlink" width="464.58000000000004" height="134.45177734375" viewBox="0 0 464.58000000000004 134.45177734375" preserveAspectRatio="none" data-parent="shape_AAsIR3xCPo"><rect fill="rgba(0,0,0,0)" width="384" height="40" x="40.29" y="47.225888671875"></rect><g data-width="383.81733398437495" transform="translate(40.29, 0)"><path d="M21.29-16.74L21.29-25.71Q21.29-26.34 21.51-26.81Q21.74-27.29 22.11-27.61Q22.49-27.94 22.96-28.09Q23.43-28.25 23.94-28.25L23.94-28.25Q24.43-28.25 24.91-28.09Q25.38-27.94 25.75-27.62Q26.13-27.31 26.35-26.82Q26.58-26.34 26.58-25.71L26.58-25.71L26.58-2.58Q26.58-1.95 26.35-1.47Q26.13-0.98 25.75-0.67Q25.38-0.35 24.90-0.20Q24.41-0.04 23.92-0.04L23.92-0.04Q23.43-0.04 22.96-0.20Q22.49-0.35 22.11-0.67Q21.74-0.98 21.51-1.47Q21.29-1.95 21.29-2.58L21.29-2.58L21.29-12.57L8.70-12.57L8.70-2.58Q8.70-1.95 8.47-1.47Q8.24-0.98 7.87-0.67Q7.50-0.35 7.01-0.20Q6.53-0.04 6.04-0.04L6.04-0.04Q5.55-0.04 5.08-0.20Q4.60-0.35 4.23-0.67Q3.86-0.98 3.63-1.47Q3.40-1.95 3.40-2.58L3.40-2.58L3.40-25.71Q3.40-26.34 3.63-26.81Q3.86-27.29 4.23-27.61Q4.60-27.94 5.09-28.09Q5.57-28.25 6.06-28.25L6.06-28.25Q6.55-28.25 7.02-28.09Q7.50-27.94 7.87-27.62Q8.24-27.31 8.47-26.82Q8.70-26.34 8.70-25.71L8.70-25.71L8.70-16.74L21.29-16.74Z" transform="translate(0 80.225888671875) " fill="rgb(25, 25, 25)" stroke="rgb(25, 25, 25)" stroke-linecap="square" stroke-linejoin="square" stroke-width="0.067" data-glyph-w="29.98142578125" data-glyph-h="53.2150634765625" data-glyph-ascender="39.935888671875" data-glyph-descender="-13.2791748046875"></path><path d="M3.31-9.66L3.31-25.73Q3.31-26.36 3.53-26.84Q3.76-27.33 4.12-27.64Q4.49-27.96 4.96-28.11Q5.43-28.27 5.94-28.27L5.94-28.27Q6.43-28.27 6.91-28.11Q7.38-27.96 7.75-27.64Q8.12-27.33 8.35-26.84Q8.58-26.36 8.58-25.73L8.58-25.73L8.58-9.82Q8.58-8.14 9.12-6.93Q9.66-5.72 10.54-4.93Q11.43-4.13 12.56-3.75Q13.69-3.36 14.87-3.36L14.87-3.36Q16.07-3.36 17.20-3.75Q18.34-4.13 19.22-4.93Q20.11-5.72 20.65-6.93Q21.19-8.14 21.19-9.82L21.19-9.82L21.19-25.73Q21.19-26.36 21.41-26.84Q21.64-27.33 22.01-27.64Q22.39-27.96 22.86-28.11Q23.33-28.27 23.84-28.27L23.84-28.27Q24.34-28.27 24.81-28.11Q25.28-27.96 25.65-27.64Q26.03-27.33 26.25-26.84Q26.48-26.36 26.48-25.73L26.48-25.73L26.48-9.66Q26.48-7.06 25.56-5.13Q24.63-3.21 23.06-1.93Q21.48-0.65 19.37-0.02Q17.25 0.61 14.87 0.61L14.87 0.61Q12.49 0.61 10.39-0.02Q8.28-0.65 6.71-1.93Q5.13-3.21 4.22-5.13Q3.31-7.06 3.31-9.66L3.31-9.66Z" transform="translate(29.98142578125 80.225888671875) " fill="rgb(25, 25, 25)" stroke="rgb(25, 25, 25)" stroke-linecap="square" stroke-linejoin="square" stroke-width="0.067" data-glyph-w="29.7650244140625" data-glyph-h="53.2150634765625" data-glyph-ascender="39.935888671875" data-glyph-descender="-13.2791748046875"></path><path d="M7.75-14.13L7.75-14.13Q7.75-11.76 8.21-9.77Q8.68-7.77 9.66-6.32Q10.64-4.88 12.16-4.06Q13.67-3.25 15.78-3.25L15.78-3.25Q17.88-3.25 19.40-4.06Q20.91-4.88 21.90-6.32Q22.88-7.77 23.35-9.77Q23.82-11.76 23.82-14.13L23.82-14.13Q23.82-16.47 23.36-18.46Q22.90-20.46 21.92-21.92Q20.93-23.37 19.41-24.20Q17.88-25.02 15.78-25.02L15.78-25.02Q13.67-25.02 12.15-24.20Q10.62-23.37 9.65-21.92Q8.68-20.46 8.21-18.46Q7.75-16.47 7.75-14.13ZM2.18-14.13L2.18-14.13Q2.18-17.43 3.07-20.15Q3.95-22.88 5.68-24.83Q7.40-26.77 9.93-27.85Q12.47-28.92 15.78-28.92L15.78-28.92Q19.10-28.92 21.64-27.85Q24.18-26.77 25.90-24.83Q27.62-22.88 28.50-20.15Q29.37-17.43 29.37-14.13L29.37-14.13Q29.37-10.82 28.50-8.11Q27.62-5.39 25.90-3.44Q24.18-1.50 21.64-0.42Q19.10 0.65 15.78 0.65L15.78 0.65Q12.47 0.65 9.93-0.42Q7.40-1.50 5.68-3.44Q3.95-5.39 3.07-8.11Q2.18-10.82 2.18-14.13Z" transform="translate(59.7464501953125 80.225888671875) " fill="rgb(25, 25, 25)" stroke="rgb(25, 25, 25)" stroke-linecap="square" stroke-linejoin="square" stroke-width="0.067" data-glyph-w="31.555253906249998" data-glyph-h="53.2150634765625" data-glyph-ascender="39.935888671875" data-glyph-descender="-13.2791748046875"></path><path d="M3.44-2.50L3.44-25.77Q3.44-26.30 3.64-26.76Q3.84-27.21 4.18-27.55Q4.52-27.90 4.99-28.09Q5.45-28.29 5.98-28.29L5.98-28.29L15.92-28.27Q17.76-28.27 19.33-27.74Q20.89-27.21 22.02-26.27Q23.15-25.34 23.78-24.04Q24.41-22.74 24.41-21.19L24.41-21.19Q24.41-20.03 24.01-18.97Q23.61-17.92 22.88-17.08Q22.15-16.23 21.16-15.63Q20.16-15.03 18.96-14.79L18.96-14.79L18.96-14.72Q20.44-14.50 21.64-13.91Q22.84-13.32 23.69-12.41Q24.53-11.51 24.99-10.33Q25.46-9.15 25.46-7.73L25.46-7.73Q25.46-6.31 24.95-4.93Q24.43-3.54 23.30-2.45Q22.17-1.36 20.39-0.68Q18.61 0 16.07 0L16.07 0L5.98 0Q5.45 0 4.99-0.20Q4.52-0.39 4.18-0.73Q3.84-1.06 3.64-1.52Q3.44-1.99 3.44-2.50L3.44-2.50ZM8.52-13.00L8.52-3.48L13.48-3.48Q15.11-3.48 16.36-3.71Q17.61-3.93 18.46-4.49Q19.32-5.04 19.75-5.97Q20.18-6.91 20.18-8.30L20.18-8.30Q20.18-9.78 19.61-10.69Q19.04-11.61 18.01-12.12Q16.98-12.63 15.53-12.82Q14.09-13.00 12.35-13.00L12.35-13.00L8.52-13.00ZM13.30-24.79L8.52-24.79L8.52-16.03L13.40-16.03Q14.58-16.03 15.64-16.28Q16.70-16.53 17.49-17.07Q18.28-17.61 18.74-18.45Q19.20-19.30 19.20-20.50L19.20-20.50Q19.20-21.80 18.71-22.62Q18.22-23.45 17.40-23.93Q16.58-24.41 15.52-24.60Q14.46-24.79 13.30-24.79L13.30-24.79Z" transform="translate(91.30170410156249 80.225888671875) " fill="rgb(25, 25, 25)" stroke="rgb(25, 25, 25)" stroke-linecap="square" stroke-linejoin="square" stroke-width="0.067" data-glyph-w="27.974794921875" data-glyph-h="53.2150634765625" data-glyph-ascender="39.935888671875" data-glyph-descender="-13.2791748046875"></path><path d="M18.85-23.75L27.15-3.09Q27.29-2.70 27.29-2.30L27.29-2.30Q27.29-1.77 27.06-1.35Q26.83-0.92 26.46-0.63Q26.09-0.33 25.61-0.18Q25.14-0.02 24.65-0.02L24.65-0.02Q23.92-0.02 23.28-0.42Q22.64-0.83 22.43-1.69L22.43-1.69L20.38-6.94L7.77-6.94L5.74-1.69Q5.51-0.81 4.89-0.41Q4.27-0.02 3.56-0.02L3.56-0.02Q3.09-0.02 2.62-0.18Q2.14-0.33 1.78-0.63Q1.42-0.92 1.19-1.34Q0.96-1.75 0.96-2.26L0.96-2.26Q0.96-2.46 0.99-2.67Q1.02-2.87 1.12-3.09L1.12-3.09L9.38-23.75Q9.88-25.12 10.37-26.00Q10.86-26.87 11.42-27.37Q11.98-27.88 12.64-28.07Q13.30-28.27 14.11-28.27L14.11-28.27Q14.93-28.27 15.60-28.06Q16.27-27.86 16.83-27.35Q17.39-26.83 17.88-25.96Q18.37-25.08 18.85-23.75L18.85-23.75ZM14.13-24.24L14.05-24.24L8.85-10.25L19.30-10.25L14.13-24.24Z" transform="translate(119.2764990234375 80.225888671875) " fill="rgb(25, 25, 25)" stroke="rgb(25, 25, 25)" stroke-linecap="square" stroke-linejoin="square" stroke-width="0.067" data-glyph-w="28.427270507812498" data-glyph-h="53.2150634765625" data-glyph-ascender="39.935888671875" data-glyph-descender="-13.2791748046875"></path><path d="M7.75-14.13L7.75-14.13Q7.75-11.76 8.21-9.77Q8.68-7.77 9.66-6.32Q10.64-4.88 12.16-4.06Q13.67-3.25 15.78-3.25L15.78-3.25Q17.88-3.25 19.40-4.06Q20.91-4.88 21.90-6.32Q22.88-7.77 23.35-9.77Q23.82-11.76 23.82-14.13L23.82-14.13Q23.82-16.47 23.36-18.46Q22.90-20.46 21.92-21.92Q20.93-23.37 19.41-24.20Q17.88-25.02 15.78-25.02L15.78-25.02Q13.67-25.02 12.15-24.20Q10.62-23.37 9.65-21.92Q8.68-20.46 8.21-18.46Q7.75-16.47 7.75-14.13ZM2.18-14.13L2.18-14.13Q2.18-17.43 3.07-20.15Q3.95-22.88 5.68-24.83Q7.40-26.77 9.93-27.85Q12.47-28.92 15.78-28.92L15.78-28.92Q19.10-28.92 21.64-27.85Q24.18-26.77 25.90-24.83Q27.62-22.88 28.50-20.15Q29.37-17.43 29.37-14.13L29.37-14.13Q29.37-10.82 28.50-8.11Q27.62-5.39 25.90-3.44Q24.18-1.50 21.64-0.42Q19.10 0.65 15.78 0.65L15.78 0.65Q12.47 0.65 9.93-0.42Q7.40-1.50 5.68-3.44Q3.95-5.39 3.07-8.11Q2.18-10.82 2.18-14.13Z" transform="translate(147.70376953125 80.225888671875) " fill="rgb(25, 25, 25)" stroke="rgb(25, 25, 25)" stroke-linecap="square" stroke-linejoin="square" stroke-width="0.067" data-glyph-w="31.555253906249998" data-glyph-h="53.2150634765625" data-glyph-ascender="39.935888671875" data-glyph-descender="-13.2791748046875"></path><path d="M26.48-2.95L20.32-23.43L14.26-2.95Q14.11-2.24 13.71-1.70Q13.32-1.16 12.77-0.78Q12.22-0.39 11.58-0.20Q10.94 0 10.27 0L10.27 0Q9.66 0 9.08-0.18Q8.50-0.35 8.01-0.71Q7.52-1.06 7.14-1.62Q6.77-2.18 6.59-2.95L6.59-2.95L0.79-25.32Q0.71-25.61 0.71-25.95L0.71-25.95Q0.71-26.48 0.94-26.90Q1.18-27.33 1.54-27.62Q1.91-27.92 2.38-28.08Q2.85-28.25 3.32-28.25L3.32-28.25Q4.05-28.25 4.65-27.85Q5.25-27.44 5.43-26.54L5.43-26.54L10.66-4.62L16.90-25.48Q17.06-26.18 17.40-26.72Q17.74-27.25 18.21-27.60Q18.67-27.96 19.22-28.13Q19.77-28.31 20.34-28.31L20.34-28.31Q20.91-28.31 21.46-28.13Q22.01-27.96 22.49-27.60Q22.96-27.25 23.31-26.72Q23.67-26.18 23.82-25.48L23.82-25.48L30.30-4.66L35.47-26.50Q35.65-27.44 36.27-27.87Q36.89-28.29 37.61-28.29L37.61-28.29Q38.07-28.29 38.51-28.13Q38.95-27.97 39.31-27.69Q39.66-27.40 39.88-27.00Q40.09-26.60 40.09-26.09L40.09-26.09Q40.09-25.77 40.01-25.48L40.01-25.48L34.13-2.95Q33.96-2.20 33.56-1.64Q33.17-1.08 32.65-0.70Q32.13-0.31 31.51-0.12Q30.89 0.08 30.26 0.08L30.26 0.08Q29.63 0.08 29.03-0.11Q28.43-0.30 27.92-0.68Q27.40-1.06 27.03-1.62Q26.66-2.18 26.48-2.95L26.48-2.95Z" transform="translate(179.2590234375 80.225888671875) " fill="rgb(25, 25, 25)" stroke="rgb(25, 25, 25)" stroke-linecap="square" stroke-linejoin="square" stroke-width="0.067" data-glyph-w="40.722802734375" data-glyph-h="53.2150634765625" data-glyph-ascender="39.935888671875" data-glyph-descender="-13.2791748046875"></path><path d="M20.75 0L6.08 0Q5.57 0 5.11-0.21Q4.64-0.41 4.29-0.76Q3.93-1.10 3.72-1.56Q3.50-2.03 3.50-2.54L3.50-2.54L3.50-25.75Q3.50-26.24 3.69-26.71Q3.88-27.17 4.22-27.52Q4.56-27.88 5.02-28.08Q5.47-28.29 6.00-28.29L6.00-28.29L20.32-28.29Q20.81-28.29 21.18-28.12Q21.54-27.96 21.79-27.68Q22.03-27.40 22.15-27.06Q22.27-26.72 22.27-26.34L22.27-26.34Q22.27-25.99 22.15-25.63Q22.03-25.28 21.79-25.00Q21.54-24.73 21.18-24.56Q20.81-24.39 20.32-24.39L20.32-24.39L8.64-24.39L8.64-16.43L19.57-16.43Q20.07-16.43 20.44-16.26Q20.81-16.09 21.06-15.82Q21.31-15.54 21.42-15.20Q21.54-14.85 21.54-14.48L21.54-14.48Q21.54-14.13 21.41-13.77Q21.29-13.42 21.04-13.14Q20.79-12.87 20.43-12.70Q20.07-12.53 19.57-12.53L19.57-12.53L8.64-12.53L8.64-3.90L20.75-3.90Q21.25-3.90 21.61-3.73Q21.97-3.56 22.22-3.29Q22.47-3.01 22.58-2.67Q22.70-2.32 22.70-1.95L22.70-1.95Q22.70-1.59 22.58-1.24Q22.47-0.89 22.22-0.61Q21.97-0.33 21.61-0.17Q21.25 0 20.75 0L20.75 0Z" transform="translate(219.98182617187499 80.225888671875) " fill="rgb(25, 25, 25)" stroke="rgb(25, 25, 25)" stroke-linecap="square" stroke-linejoin="square" stroke-width="0.067" data-glyph-w="24.8468115234375" data-glyph-h="53.2150634765625" data-glyph-ascender="39.935888671875" data-glyph-descender="-13.2791748046875"></path><path d="M3.44-2.50L3.44-25.77Q3.44-26.30 3.64-26.76Q3.84-27.21 4.18-27.55Q4.52-27.90 4.99-28.09Q5.45-28.29 5.98-28.29L5.98-28.29L15.92-28.27Q17.76-28.27 19.33-27.74Q20.89-27.21 22.02-26.27Q23.15-25.34 23.78-24.04Q24.41-22.74 24.41-21.19L24.41-21.19Q24.41-20.03 24.01-18.97Q23.61-17.92 22.88-17.08Q22.15-16.23 21.16-15.63Q20.16-15.03 18.96-14.79L18.96-14.79L18.96-14.72Q20.44-14.50 21.64-13.91Q22.84-13.32 23.69-12.41Q24.53-11.51 24.99-10.33Q25.46-9.15 25.46-7.73L25.46-7.73Q25.46-6.31 24.95-4.93Q24.43-3.54 23.30-2.45Q22.17-1.36 20.39-0.68Q18.61 0 16.07 0L16.07 0L5.98 0Q5.45 0 4.99-0.20Q4.52-0.39 4.18-0.73Q3.84-1.06 3.64-1.52Q3.44-1.99 3.44-2.50L3.44-2.50ZM8.52-13.00L8.52-3.48L13.48-3.48Q15.11-3.48 16.36-3.71Q17.61-3.93 18.46-4.49Q19.32-5.04 19.75-5.97Q20.18-6.91 20.18-8.30L20.18-8.30Q20.18-9.78 19.61-10.69Q19.04-11.61 18.01-12.12Q16.98-12.63 15.53-12.82Q14.09-13.00 12.35-13.00L12.35-13.00L8.52-13.00ZM13.30-24.79L8.52-24.79L8.52-16.03L13.40-16.03Q14.58-16.03 15.64-16.28Q16.70-16.53 17.49-17.07Q18.28-17.61 18.74-18.45Q19.20-19.30 19.20-20.50L19.20-20.50Q19.20-21.80 18.71-22.62Q18.22-23.45 17.40-23.93Q16.58-24.41 15.52-24.60Q14.46-24.79 13.30-24.79L13.30-24.79Z" transform="translate(244.8286376953125 80.225888671875) " fill="rgb(25, 25, 25)" stroke="rgb(25, 25, 25)" stroke-linecap="square" stroke-linejoin="square" stroke-width="0.067" data-glyph-w="27.974794921875" data-glyph-h="53.2150634765625" data-glyph-ascender="39.935888671875" data-glyph-descender="-13.2791748046875"></path><path d="M3.36-2.48L3.36-2.48Q3.36-2.97 3.55-3.42Q3.74-3.88 4.09-4.23Q4.45-4.58 4.94-4.79Q5.43-5.00 6.04-5.00L6.04-5.00Q6.65-5.00 7.14-4.79Q7.63-4.58 7.99-4.23Q8.34-3.88 8.53-3.42Q8.72-2.97 8.72-2.48L8.72-2.48Q8.72-1.97 8.53-1.51Q8.34-1.06 7.99-0.71Q7.63-0.35 7.14-0.15Q6.65 0.06 6.04 0.06L6.04 0.06Q5.43 0.06 4.94-0.15Q4.45-0.35 4.09-0.71Q3.74-1.06 3.55-1.51Q3.36-1.97 3.36-2.48Z" transform="translate(272.80343261718747 80.225888671875) " fill="rgb(25, 25, 25)" stroke="rgb(25, 25, 25)" stroke-linecap="square" stroke-linejoin="square" stroke-width="0.067" data-glyph-w="12.0988037109375" data-glyph-h="53.2150634765625" data-glyph-ascender="39.935888671875" data-glyph-descender="-13.2791748046875"></path><path d="M2.03-14.01L2.03-14.01Q2.03-17.45 3.02-20.21Q4.01-22.98 5.78-24.92Q7.55-26.85 9.99-27.89Q12.43-28.92 15.31-28.92L15.31-28.92Q17.10-28.92 19.00-28.50Q20.91-28.07 22.94-27.19L22.94-27.19Q23.59-26.91 23.88-26.40Q24.18-25.89 24.18-25.36L24.18-25.36Q24.18-24.98 24.05-24.63Q23.92-24.28 23.68-23.99Q23.43-23.71 23.09-23.54Q22.74-23.37 22.31-23.37L22.31-23.37Q21.95-23.37 21.52-23.53L21.52-23.53Q18.35-24.65 15.90-24.65L15.90-24.65Q13.85-24.65 12.28-23.94Q10.70-23.23 9.64-21.89Q8.58-20.54 8.03-18.58Q7.48-16.62 7.48-14.11L7.48-14.11Q7.48-11.80 7.96-9.90Q8.44-7.99 9.43-6.62Q10.43-5.25 11.91-4.49Q13.40-3.72 15.40-3.72L15.40-3.72Q16.80-3.72 18.41-4.10Q20.03-4.49 21.92-5.33L21.92-5.33Q22.17-5.45 22.42-5.50Q22.66-5.55 22.88-5.55L22.88-5.55Q23.29-5.55 23.62-5.39Q23.94-5.23 24.18-4.96Q24.41-4.68 24.54-4.33Q24.67-3.97 24.67-3.60L24.67-3.60Q24.67-2.99 24.32-2.39Q23.96-1.79 23.14-1.40L23.14-1.40Q18.77 0.65 15.03 0.65L15.03 0.65Q12.14 0.65 9.74-0.41Q7.34-1.48 5.63-3.41Q3.91-5.35 2.97-8.05Q2.03-10.74 2.03-14.01Z" transform="translate(284.90223632812496 80.225888671875) " fill="rgb(25, 25, 25)" stroke="rgb(25, 25, 25)" stroke-linecap="square" stroke-linejoin="square" stroke-width="0.067" data-glyph-w="27.974794921875" data-glyph-h="53.2150634765625" data-glyph-ascender="39.935888671875" data-glyph-descender="-13.2791748046875"></path><path d="M7.75-14.13L7.75-14.13Q7.75-11.76 8.21-9.77Q8.68-7.77 9.66-6.32Q10.64-4.88 12.16-4.06Q13.67-3.25 15.78-3.25L15.78-3.25Q17.88-3.25 19.40-4.06Q20.91-4.88 21.90-6.32Q22.88-7.77 23.35-9.77Q23.82-11.76 23.82-14.13L23.82-14.13Q23.82-16.47 23.36-18.46Q22.90-20.46 21.92-21.92Q20.93-23.37 19.41-24.20Q17.88-25.02 15.78-25.02L15.78-25.02Q13.67-25.02 12.15-24.20Q10.62-23.37 9.65-21.92Q8.68-20.46 8.21-18.46Q7.75-16.47 7.75-14.13ZM2.18-14.13L2.18-14.13Q2.18-17.43 3.07-20.15Q3.95-22.88 5.68-24.83Q7.40-26.77 9.93-27.85Q12.47-28.92 15.78-28.92L15.78-28.92Q19.10-28.92 21.64-27.85Q24.18-26.77 25.90-24.83Q27.62-22.88 28.50-20.15Q29.37-17.43 29.37-14.13L29.37-14.13Q29.37-10.82 28.50-8.11Q27.62-5.39 25.90-3.44Q24.18-1.50 21.64-0.42Q19.10 0.65 15.78 0.65L15.78 0.65Q12.47 0.65 9.93-0.42Q7.40-1.50 5.68-3.44Q3.95-5.39 3.07-8.11Q2.18-10.82 2.18-14.13Z" transform="translate(312.87703124999996 80.225888671875) " fill="rgb(25, 25, 25)" stroke="rgb(25, 25, 25)" stroke-linecap="square" stroke-linejoin="square" stroke-width="0.067" data-glyph-w="31.555253906249998" data-glyph-h="53.2150634765625" data-glyph-ascender="39.935888671875" data-glyph-descender="-13.2791748046875"></path><path d="M19.63-6.41L19.75-6.41L27.72-24.45Q28.17-25.57 28.62-26.31Q29.08-27.05 29.59-27.49Q30.10-27.94 30.70-28.11Q31.30-28.29 32.07-28.29L32.07-28.29Q32.81-28.29 33.49-28.05Q34.17-27.82 34.69-27.31Q35.21-26.79 35.52-25.99Q35.82-25.18 35.82-24.04L35.82-24.04L35.82-2.28Q35.82-1.71 35.64-1.29Q35.45-0.87 35.14-0.58Q34.82-0.30 34.42-0.15Q34.01 0 33.60 0L33.60 0Q33.19 0 32.80-0.15Q32.42-0.30 32.11-0.58Q31.79-0.87 31.60-1.29Q31.42-1.71 31.42-2.28L31.42-2.28L31.42-23.21L22.70-3.21Q22.51-2.66 22.18-2.24Q21.86-1.83 21.44-1.54Q21.03-1.26 20.57-1.11Q20.11-0.96 19.63-0.96L19.63-0.96Q18.73-0.96 17.91-1.50Q17.10-2.05 16.68-3.21L16.68-3.21L7.99-23.10L7.99-2.28Q7.99-1.71 7.80-1.29Q7.61-0.87 7.30-0.58Q6.98-0.30 6.59-0.15Q6.20 0 5.78 0L5.78 0Q5.37 0 4.98-0.15Q4.58-0.30 4.28-0.58Q3.97-0.87 3.79-1.29Q3.60-1.71 3.60-2.28L3.60-2.28L3.60-24.04Q3.60-25.18 3.91-25.99Q4.21-26.79 4.74-27.31Q5.27-27.82 5.96-28.05Q6.65-28.29 7.42-28.29L7.42-28.29Q8.18-28.29 8.79-28.10Q9.40-27.92 9.92-27.47Q10.45-27.03 10.90-26.28Q11.35-25.54 11.80-24.41L11.80-24.41L19.63-6.41Z" transform="translate(344.43228515625 80.225888671875) " fill="rgb(25, 25, 25)" stroke="rgb(25, 25, 25)" stroke-linecap="square" stroke-linejoin="square" stroke-width="0.067" data-glyph-w="39.385048828125" data-glyph-h="53.2150634765625" data-glyph-ascender="39.935888671875" data-glyph-descender="-13.2791748046875"></path></g></svg></g>
        </g></svg>